<svg xmlns="http://www.w3.org/2000/svg" width="21.586" height="25.885" viewBox="0 0 21.586 25.885"><g transform="translate(3875 -828)"><path d="M113.724,192.45c-2.661.139-3.569-.975-4.664-1.134a6.139,6.139,0,0,0-1.231-.067,3.787,3.787,0,0,0-.406.043,8.361,8.361,0,0,1-2.789-.272,7.477,7.477,0,0,1,0-3.287c.452-1.2-3.673-.646-3.287,0,.776,1.3,0,3.287,0,3.287a30.206,30.206,0,0,1-3.028.724l.164.228H97.41A46.149,46.149,0,0,1,98.539,203.3h8.6a39.533,39.533,0,0,1,.908-8.293,4.422,4.422,0,0,0,1.353.158,21,21,0,0,1,5.248.37Z" transform="translate(-3969.677 650.587)" fill="#f7ba85"/><path d="M152.411,14.2s2.983-3.611,1.616-5.011c-.5-.512-1.245.991-3.393.312l-1.764,2.015Z" transform="translate(-4018.419 819.133)" fill="#653d28"/><path d="M89.651,17.064a5.452,5.452,0,0,0-4.8,7.408,2.669,2.669,0,0,0,3.038,1.84Z" transform="translate(-3957.436 811.574)" fill="#653d28"/><path d="M121.757,45.88a8.554,8.554,0,0,1,.868,3.454c-.126,1.687-.5,2.881-2.324,3.4a4.057,4.057,0,0,1-4.338-1.093,7.672,7.672,0,0,1-1.81-3.069c-.828-2.922.072-5.049,2.995-5.876C118.64,42.272,120.823,43.251,121.757,45.88Z" transform="translate(-3985.258 787.386)" fill="#f9c694"/><ellipse cx="1.01" cy="1.178" rx="1.01" ry="1.178" transform="translate(-3872.429 836.984) rotate(-40.62)" fill="#f9c694"/><path d="M176.24,5.653s1.118-.088,1.177-.653c0,0,.46.071.415.837l-1.07.837Z" transform="translate(-4044.343 823)" fill="#653d28"/><path d="M124.128,30.448a29.372,29.372,0,0,0,4.023-.528s1.1,2.672-4.7,2.679Z" transform="translate(-3994.342 799.396)" fill="#653d28"/><path d="M217.237,166.764a.688.688,0,1,1,1.284-.421c.143.43.008.687-.345.8A.692.692,0,0,1,217.237,166.764Z" transform="translate(-4083.128 670.744)" fill="#dc7142"/><path d="M293.931,195.38a49.438,49.438,0,0,0-5.391-5.441l1.231-1.509s9.225,5.441,7.249,7.923c0,0-1,1.268-2.582-.353A4.916,4.916,0,0,1,293.931,195.38Z" transform="translate(-4150.711 649.259)" fill="#f9c694"/><path d="M236.6,186.481s-.729-.951-1.567-.322a.321.321,0,0,0,.053.545,1.407,1.407,0,0,0,.44.111,3.7,3.7,0,0,1,1.591.771s1.07,1.022,1.832-.01l-.961-2.056Z" transform="translate(-4099.907 652.015)" fill="#f1b48c"/><path d="M233.69,129.5l3.879,3.216,1.915-1.8-3.032-4.014Z" transform="translate(-4098.758 707.539)" fill="#d8eef5"/><g transform="translate(-3869.177 832.18)"><path d="M227.836,111.276a.132.132,0,0,1-.04-.006.143.143,0,0,1-.1-.177,1.129,1.129,0,0,1,.539-.647,1.2,1.2,0,0,1,.99.018.144.144,0,1,1-.106.267.927.927,0,0,0-.756-.029.843.843,0,0,0-.392.471A.145.145,0,0,1,227.836,111.276Z" transform="translate(-223.9 -108.963)" fill="#40220f"/><path d="M164.829,128.607a.144.144,0,0,1-.124-.216,1.2,1.2,0,0,1,.765-.629,1.131,1.131,0,0,1,.825.173.144.144,0,0,1-.166.234.861.861,0,0,0-.6-.126.922.922,0,0,0-.575.492A.144.144,0,0,1,164.829,128.607Z" transform="translate(-164.222 -125.438)" fill="#40220f"/><path d="M217.918,84.141a1.474,1.474,0,0,0-.85.256,1.392,1.392,0,0,0-.479.515c-.068.138.138.259.207.121a1.269,1.269,0,0,1,1.125-.653.12.12,0,0,0,0-.239Z" transform="translate(-213.371 -84.14)" fill="#40220f"/><path d="M156.081,103.556a1.254,1.254,0,0,1,.728-.236,1.179,1.179,0,0,1,.567.126c.135.075.256-.132.121-.207a1.4,1.4,0,0,0-.687-.158,1.473,1.473,0,0,0-.85.269.123.123,0,0,0-.043.164.12.12,0,0,0,.164.043Z" transform="translate(-155.902 -102.079)" fill="#40220f"/></g><path d="M101.018,263.479c.475.427,1.954,1.764,2.113,1.984,0,0,1.72-2.195,2.071-2.113a16.611,16.611,0,0,0,2.3.1,5.659,5.659,0,0,1,2.775.588,2,2,0,0,0,.324.154l.463.175s-.438,2.654-.438,3.09a20.552,20.552,0,0,1-2.347.019.256.256,0,0,0-.271.22c-.179,1.244-.988,6.961-.871,7.895h-8.6L97.41,264.069l3.27-.68A.387.387,0,0,1,101.018,263.479Z" transform="translate(-3969.677 578.299)" fill="#fff"/><path d="M49.272,272.361s-2.495-.59-2.666,3.32a54.626,54.626,0,0,0-.936,8.41h2.82a47.136,47.136,0,0,1,1.813-8.486C50.811,274.1,51.121,272.618,49.272,272.361Z" transform="translate(-3920.67 569.791)" fill="#f7ba85"/><path d="M55.59,274.526a2.5,2.5,0,0,1,3.258-2.182s2.526.647.578,4.912l-.644,1.622a20.875,20.875,0,0,0-3.551-.624S55.491,275.7,55.59,274.526Z" transform="translate(-3929.725 569.884)" fill="#fff"/><path d="M112.112,427.495h.649a29.277,29.277,0,0,1-1.021-3.765S111.951,426.294,112.112,427.495Z" transform="translate(-3983.25 426.388)" fill="#ebebeb"/><path d="M55.23,368.338a35.686,35.686,0,0,1,3.551.624s.4-1.04.644-1.622a5.608,5.608,0,0,1-4.162.673Z" transform="translate(-3929.725 479.799)" fill="#ebebeb"/><path d="M113.429,42.35s-1.991.9-2.932,0a4.3,4.3,0,0,0-.907.936S112.035,43.844,113.429,42.35Z" transform="translate(-3981.214 787.623)" fill="#86421c"/><path d="M240.82,160.58l3.5,2.948L246,161.943l-1.734-2.3a5.368,5.368,0,0,0-2.4.462Z" transform="translate(-4105.512 676.524)" fill="#abe2fa"/><path d="M305.567,154.973a2.438,2.438,0,0,0-.669,1.194.36.36,0,0,0,.186.385c.106.057.264.048.45-.277,0,0,.174-.206.481-.592a.567.567,0,0,0,.028-.681.288.288,0,0,0-.3-.139A.338.338,0,0,0,305.567,154.973Z" transform="translate(-4166.2 681.058)" fill="#f9c694"/><path d="M314.616,167.7a1.812,1.812,0,0,0-.6,1.038c-.039.2.032.291.124.341s.264.032.513-.233a1.809,1.809,0,0,0,.415-.436.567.567,0,0,0,.028-.682.288.288,0,0,0-.3-.138A.338.338,0,0,0,314.616,167.7Z" transform="translate(-4174.828 669.001)" fill="#f9c694"/><path d="M297.637,143.533a2.438,2.438,0,0,0-.669,1.194.359.359,0,0,0,.187.385c.106.057.264.048.45-.277,0,0,.174-.206.48-.592a.566.566,0,0,0,.028-.681.287.287,0,0,0-.3-.139A.338.338,0,0,0,297.637,143.533Z" transform="translate(-4158.688 691.894)" fill="#f9c694"/></g></svg>