<svg xmlns="http://www.w3.org/2000/svg" xmlns:xlink="http://www.w3.org/1999/xlink" width="58" height="58" viewBox="0 0 58 58"><defs><filter id="a" x="0" y="0" width="58" height="58" filterUnits="userSpaceOnUse"><feOffset dy="3" input="SourceAlpha"/><feGaussianBlur stdDeviation="3" result="b"/><feFlood flood-opacity="0.161"/><feComposite operator="in" in2="b"/><feComposite in="SourceGraphic"/></filter><linearGradient id="c" x1="0.513" y1="-1.169" x2="0.5" y2="0.838" gradientUnits="objectBoundingBox"><stop offset="0" stop-color="#3c5aff"/><stop offset="0.563" stop-color="#6b80f1"/><stop offset="1" stop-color="#fff"/></linearGradient></defs><g transform="translate(11624.634 2064)"><g transform="matrix(1, 0, 0, 1, -11624.63, -2064)" filter="url(#a)"><rect width="40" height="40" rx="5" transform="translate(9 6)" fill="#fff"/></g><g transform="translate(-11611.36 -2053.637)"><g transform="translate(0 0)"><path d="M24.907,311.42a1.782,1.782,0,0,0-2.362.045l-.013.014-3.694,3.936-1.813.061a2.06,2.06,0,0,0,.555-2.06,1.9,1.9,0,0,0-2.061-1.243,16.886,16.886,0,0,0-2.35.666c-.739.236-1.855.593-2.089.614a5.217,5.217,0,0,1-1.085-.016,9.529,9.529,0,0,0-2.626-.131.608.608,0,1,0,.109,1.211,8.321,8.321,0,0,1,2.313.119l.05.007a6.471,6.471,0,0,0,1.347.021A16.885,16.885,0,0,0,13.538,314c.783-.25,1.854-.593,2.088-.613a.69.69,0,0,1,.8.4c.095.294-.031.776-.7,1.169a41.025,41.025,0,0,1-4.017,2.1.608.608,0,0,0,.5,1.109c.925-.417,1.852-.882,2.808-1.407l4.112-.139a.608.608,0,0,0,.423-.192l3.857-4.11a.59.59,0,0,1,.729.043c.358.292.13.762-.037,1.017l-2.438,3.705a3.359,3.359,0,0,1-1.473,1.393,26.44,26.44,0,0,1-7.026,1.9l-5.955.233a.608.608,0,0,0-.485.275l-.645.987-.018.029a.208.208,0,0,1-.143.1.2.2,0,0,1-.157-.03l-4.467-3.417a.251.251,0,0,1-.017-.34,8.873,8.873,0,0,1,1.558-1.73.608.608,0,1,0-.788-.926,10.086,10.086,0,0,0-1.772,1.967,1.466,1.466,0,0,0,.181,1.912.608.608,0,0,0,.061.053l4.505,3.446a1.4,1.4,0,0,0,.85.285,1.451,1.451,0,0,0,.284-.028,1.43,1.43,0,0,0,.949-.669l.466-.713,5.641-.22a27.106,27.106,0,0,0,7.415-1.976,4.506,4.506,0,0,0,2.053-1.86l2.438-3.705a1.873,1.873,0,0,0-.211-2.628Z" transform="translate(-0.002 -292.081)" fill="url(#c)"/><path d="M117.079,3.784a.609.609,0,0,0-.061-.053L112.513.284a1.41,1.41,0,0,0-1.134-.257A1.43,1.43,0,0,0,110.43.7l-.465.712-5.641.22a27.105,27.105,0,0,0-7.415,1.976,4.507,4.507,0,0,0-2.053,1.86L92.417,9.172a1.842,1.842,0,0,0,1.4,3.053,1.651,1.651,0,0,0,1.175-.47L95,11.741,98.7,7.8l1.813-.061a2.059,2.059,0,0,0-.555,2.06,1.9,1.9,0,0,0,2.061,1.243,16.883,16.883,0,0,0,2.351-.667c.739-.236,1.855-.593,2.088-.613a5.231,5.231,0,0,1,1.085.016,9.527,9.527,0,0,0,2.626.131.608.608,0,1,0-.109-1.212,8.322,8.322,0,0,1-2.313-.119l-.05-.007a6.465,6.465,0,0,0-1.347-.021A16.877,16.877,0,0,0,104,9.222c-.739.236-1.855.593-2.089.614a.69.69,0,0,1-.8-.4c-.095-.294.031-.776.7-1.169a41.041,41.041,0,0,1,4.017-2.1.608.608,0,0,0-.5-1.109c-.924.417-1.852.882-2.808,1.407L98.405,6.6a.608.608,0,0,0-.423.192L94.125,10.9a.59.59,0,0,1-.729-.043c-.358-.292-.13-.762.037-1.017l2.438-3.705a3.358,3.358,0,0,1,1.473-1.393,26.442,26.442,0,0,1,7.026-1.9l5.955-.233a.608.608,0,0,0,.485-.275l.645-.987.018-.029a.208.208,0,0,1,.143-.1.2.2,0,0,1,.157.03l4.467,3.417a.251.251,0,0,1,.017.339,8.876,8.876,0,0,1-1.558,1.73.608.608,0,1,0,.788.926A10.092,10.092,0,0,0,117.26,5.7a1.466,1.466,0,0,0-.181-1.912Z" transform="translate(-86.393 0.001)" fill="url(#c)"/><path d="M190.279,200.107a.961.961,0,0,0,.682-.282l2.771-2.771a2.746,2.746,0,0,0-3.453-4.235,2.746,2.746,0,0,0-3.454,4.235l2.771,2.771A.962.962,0,0,0,190.279,200.107Zm-2.593-6.076a1.529,1.529,0,0,1,2.163,0,.608.608,0,0,0,.86,0,1.529,1.529,0,0,1,2.163,2.163l-2.593,2.593-2.593-2.593A1.531,1.531,0,0,1,187.686,194.031Z" transform="translate(-174.709 -180.668)" fill="url(#c)"/><path d="M424.258,132.1h0a.608.608,0,1,0,.609.608A.608.608,0,0,0,424.258,132.1Z" transform="translate(-397.884 -124.069)" fill="url(#c)"/><path d="M68.964,361.119a.608.608,0,1,0,0-1.216h0a.608.608,0,1,0,0,1.216Z" transform="translate(-64.199 -338.014)" fill="url(#c)"/></g></g></g></svg>