<svg xmlns="http://www.w3.org/2000/svg" xmlns:xlink="http://www.w3.org/1999/xlink" width="52" height="52" viewBox="0 0 52 52"><defs><linearGradient id="a" x1="0.5" y1="1" x2="0.5" gradientUnits="objectBoundingBox"><stop offset="0" stop-color="#fff"/><stop offset="1" stop-color="#fff2f4"/></linearGradient></defs><circle cx="26" cy="26" r="26" fill="#353951"/><g transform="translate(9.292 12.355)"><path d="M115.505,121c-3.362,0-5.941,1.89-7.658,4.7-1.717-2.813-4.3-4.7-7.658-4.7a8.7,8.7,0,0,0-6.692,3.1,10.827,10.827,0,0,0-2.5,7.068c0,2.912,1.092,5.6,3.437,8.473a75.833,75.833,0,0,0,8.426,8.1c1.264,1.108,2.57,2.253,3.959,3.5a1.532,1.532,0,0,0,2.049,0c1.389-1.25,2.7-2.4,3.959-3.5a75.827,75.827,0,0,0,8.426-8.1c2.345-2.868,3.437-5.561,3.437-8.473C124.695,125.687,120.942,121,115.505,121Z" transform="translate(-91 -121)" fill="url(#a)"/></g></svg>