<svg xmlns="http://www.w3.org/2000/svg" width="52" height="52" viewBox="0 0 52 52"><g transform="translate(-243 -553)"><g transform="translate(243 553)"><circle cx="26" cy="26" r="26" fill="#353951"/></g><g transform="translate(250.738 562.018)"><g transform="translate(0.023 0)"><path d="M169.483,361.517l-1.956-10.235H157.1l-1.956,10.235a1.014,1.014,0,0,0,.993,1.2l3.7.012a1.014,1.014,0,0,0,.964-.69l1.514-4.486,1.514,4.486a1.014,1.014,0,0,0,.964.69l3.7-.012A1.014,1.014,0,0,0,169.483,361.517Z" transform="translate(-144.075 -326.252)" fill="#fff"/><path d="M277.789,362.73l2.592-.008a1.014,1.014,0,0,0,.993-1.2l-1.956-10.235H275.6Z" transform="translate(-255.965 -326.252)" fill="#f7f7f7"/><g transform="translate(0 3.098)"><g transform="translate(26.145)"><g transform="translate(1.379 2.001)"><path d="M393.338,72.662h-6.474a.551.551,0,0,1,0-1.1h6.474a.551.551,0,1,1,0,1.1Z" transform="translate(-386.314 -71.561)" fill="#fff"/></g><g transform="translate(8.257)"><path d="M484.349,48.579h-.956a.561.561,0,0,1-.561-.561V44.037a.561.561,0,0,1,.561-.561h.956a.561.561,0,0,1,.561.561v3.982A.561.561,0,0,1,484.349,48.579Z" transform="translate(-482.833 -43.476)" fill="#fff"/></g><path d="M368.472,48.579h-.956a.561.561,0,0,1-.561-.561V44.037a.561.561,0,0,1,.561-.561h.956a.561.561,0,0,1,.561.561v3.982A.561.561,0,0,1,368.472,48.579Z" transform="translate(-366.956 -43.476)" fill="#fff"/><path d="M381.176,65.2a1.378,1.378,0,0,0-1.379,1.376v4.741h-3.143v2.752h3.562a2.34,2.34,0,0,0,2.34-2.334V66.574A1.377,1.377,0,0,0,381.176,65.2Z" transform="translate(-375.963 -63.65)" fill="#fff"/></g><g transform="translate(1.379 2.001)"><path d="M26.405,72.662H19.932a.551.551,0,0,1,0-1.1h6.474a.551.551,0,1,1,0,1.1Z" transform="translate(-19.381 -71.561)" fill="#fff"/></g><path d="M.584,48.579h.956a.561.561,0,0,0,.561-.561V44.037a.561.561,0,0,0-.561-.561H.584a.561.561,0,0,0-.561.561v3.982A.561.561,0,0,0,.584,48.579Z" transform="translate(-0.023 -43.476)" fill="#fff"/><g transform="translate(8.257)"><path d="M116.461,48.579h.956a.561.561,0,0,0,.561-.561V44.037a.561.561,0,0,0-.561-.561h-.956a.561.561,0,0,0-.561.561v3.982A.561.561,0,0,0,116.461,48.579Z" transform="translate(-115.9 -43.476)" fill="#fff"/></g><path d="M53.9,65.2a1.378,1.378,0,0,1,1.379,1.376v4.741h3.143v2.752H54.862a2.34,2.34,0,0,1-2.34-2.334V66.574A1.377,1.377,0,0,1,53.9,65.2Z" transform="translate(-48.781 -63.65)" fill="#fff"/><path d="M134.7,140.592a.923.923,0,0,0-.839.536,3.149,3.149,0,0,1-5.716,0,.923.923,0,0,0-.839-.536h-5.3a.594.594,0,0,0-.595.593v3.247a.594.594,0,0,0,.595.593h2.323a.765.765,0,0,1,.766.764v8.925a1.418,1.418,0,0,0,1.42,1.416h8.974a1.418,1.418,0,0,0,1.42-1.416v-8.925a.765.765,0,0,1,.766-.764H140a.594.594,0,0,0,.595-.593v-3.247a.594.594,0,0,0-.595-.593Z" transform="translate(-112.766 -133.672)" fill="#fff"/><g transform="translate(18.934 6.92)"><path d="M274.049,140.592h-3.792a.594.594,0,0,1,.595.593v3.247a.594.594,0,0,1-.595.593h-2.323a.765.765,0,0,0-.766.764v8.925a1.418,1.418,0,0,1-1.42,1.416h3.792a1.418,1.418,0,0,0,1.42-1.416v-8.925a.765.765,0,0,1,.766-.764h2.323a.594.594,0,0,0,.595-.593v-3.247A.594.594,0,0,0,274.049,140.592Z" transform="translate(-265.748 -140.592)" fill="#f7f7f7"/></g></g><path d="M3.984,0A4.246,4.246,0,0,1,7.968,4.466,4.246,4.246,0,0,1,3.984,8.931,4.246,4.246,0,0,1,0,4.466,4.246,4.246,0,0,1,3.984,0Z" transform="translate(14.255 0)" fill="#f9f9f9"/><path d="M231.612,0a3.631,3.631,0,0,0-1.871.523,4.561,4.561,0,0,1,2.113,3.943,4.561,4.561,0,0,1-2.113,3.943,3.631,3.631,0,0,0,1.871.523A4.246,4.246,0,0,0,235.6,4.466,4.246,4.246,0,0,0,231.612,0Z" transform="translate(-213.373 0)" fill="#fff"/></g></g></g></svg>