<svg xmlns="http://www.w3.org/2000/svg" width="59.468" height="81.43" viewBox="0 0 59.468 81.43"><g transform="translate(-69.043)"><path d="M98.778,0a29.734,29.734,0,0,1,29.734,29.734V57.956a18.623,18.623,0,0,1-12.631,17.633L98.778,81.4l-17.1-5.813A18.624,18.624,0,0,1,69.044,57.956V29.734A29.734,29.734,0,0,1,98.778,0Z" transform="translate(-0.001)" fill="#161616"/><path d="M91.531,75.589,98.777,81.4l-17.1-5.813A18.625,18.625,0,0,1,69.043,57.957V29.734A29.734,29.734,0,0,1,98.777,0c-6.956,0-12.6,13.312-12.6,29.734V57.957C86.18,65.931,88.333,73.023,91.531,75.589Z" transform="translate(0 0)"/><path d="M182.684,414.711l-6.533,2.705H153.766l-5.65-4.352c.433-4.567.67-3.694,1.026-6.036.2-1.345-2.255-3.157-1.087-3.857a37.788,37.788,0,0,1,3.652-1.915c1.059-.487,2.112-.921,3.138-1.3,4.094-1.537,7.734,1.623,9.3,1.341a4.522,4.522,0,0,1,1.627,0c1.565.282,5.205-2.878,9.3-1.341a41.773,41.773,0,0,1,6.79,3.219c1.168.7-.852,4.011-.645,5.356C181.567,410.869,182.25,410.145,182.684,414.711Z" transform="translate(-66.179 -335.987)"/><path d="M141.611,410.393a5.282,5.282,0,0,0-1.676,3.47c-.293,2.664-.78,7.44-1.124,12.691l-3.078-2.29c.433-4.566,1.554-4.018,1.909-6.359.2-1.345-.852-4.9.316-5.6A37.673,37.673,0,0,1,141.611,410.393Z" transform="translate(-56.083 -345.123)" fill="#212121"/><path d="M214.354,418.771a30.448,30.448,0,0,0,2.958,4.244c1.027,1.235,2.275.927,3.666,1.917,1.39-.989,2.638-.682,3.666-1.916a30.474,30.474,0,0,0,2.959-4.245v-8.382H214.354Z" transform="translate(-122.2 -345.12)" fill="#ecf4ff"/><path d="M240.286,462.733a20.1,20.1,0,0,1-3.666,3.506,20.094,20.094,0,0,1-3.665-3.506l3.665-5.115Z" transform="translate(-137.843 -384.837)" fill="#3c5aff"/><path d="M214.354,409.794l6.625,6.369,6.625-6.369-5.89-3.363" transform="translate(-122.2 -341.791)" fill="#3c5aff"/><path d="M136.822,436.5c-.013.059-.028.121-.044.184h-9.241c.433-4.566,1.009-8.667,1.365-11.009a4.574,4.574,0,0,1,2.164-3.236,9.435,9.435,0,0,1,2,1.378c2.839,2.551,3.736,6.419,4.012,8.888A10.913,10.913,0,0,1,136.822,436.5Z" transform="translate(-49.191 -355.251)" fill="#ecf4ff"/><path d="M333.7,436.681h-9.239c-.015-.063-.03-.124-.044-.184a10.907,10.907,0,0,1-.255-3.793c.333-2.976,1.564-7.981,6.007-10.268a4.581,4.581,0,0,1,2.166,3.236C332.692,428.013,333.268,432.114,333.7,436.681Z" transform="translate(-214.492 -355.251)" fill="#ecf4ff"/><path d="M133.065,423.815c-.01.059-.016.118-.023.177-.293,2.664-.78,7.44-1.124,12.69h-4.381c.433-4.566,1.009-8.667,1.365-11.008a4.573,4.573,0,0,1,2.164-3.236A9.417,9.417,0,0,1,133.065,423.815Z" transform="translate(-49.191 -355.251)" fill="#ddeafb"/><path d="M212.651,388.178l-3.488,9.685-6.625-6.369-6.625,6.369-3.487-9.685a55.488,55.488,0,0,1,9.3-2.577,4.528,4.528,0,0,1,1.628,0A55.494,55.494,0,0,1,212.651,388.178Z" transform="translate(-103.761 -324.211)" fill="#ddeafb"/><path d="M234.439,338.615v8.4a5.03,5.03,0,0,1-10.059,0v-8.4Z" transform="translate(-130.632 -284.761)" fill="#ffddce"/><path d="M231.055,351.767a5.034,5.034,0,0,1-6.672-4.755v-8.4h3.284v8.4A5.029,5.029,0,0,0,231.055,351.767Z" transform="translate(-130.634 -284.759)" fill="#ffcbbe"/><path d="M224.38,338.615h10.059v7.738H224.38Z" transform="translate(-130.632 -284.761)" fill="#ffcbbe"/><path d="M165.912,148.493v11.541A15.314,15.314,0,0,1,150.6,175.348H139.2a15.314,15.314,0,0,1-15.314-15.314V148.625a62.788,62.788,0,0,0,10.061-1.306c7.921-1.61,17.013-4.654,21.243-8.884C155.195,138.435,159.379,146.985,165.912,148.493Z" transform="translate(-46.124 -116.418)" fill="#ffddce"/><path d="M149.265,222.321H139.2a15.314,15.314,0,0,1-15.314-15.314V195.6a62.775,62.775,0,0,0,10.061-1.306v12.716A15.314,15.314,0,0,0,149.265,222.321Z" transform="translate(-46.124 -163.39)" fill="#ffcbbe"/><g transform="translate(82.962 42.613)"><ellipse cx="3.439" cy="2.091" rx="3.439" ry="2.091" transform="translate(24.753)" fill="#eaafa5"/><ellipse cx="3.439" cy="2.091" rx="3.439" ry="2.091" transform="translate(0)" fill="#eaafa5"/></g><g transform="translate(85.601 35.001)"><path d="M176.81,220.075l-2.479.018a1.176,1.176,0,1,0,0,2.352h.557a5.374,5.374,0,0,0-.082.943c0,1.827.9,3.313,2,3.313s2-1.486,2-3.313S177.915,220.075,176.81,220.075Z" transform="translate(-173.155 -220.075)" fill="#161616"/><path d="M306.944,220.093l-2.631-.018c-1.105,0-2,1.486-2,3.313s.9,3.313,2,3.313,2-1.486,2-3.313a5.372,5.372,0,0,0-.082-.943h.709a1.176,1.176,0,1,0,0-2.352Z" transform="translate(-281.768 -220.075)" fill="#161616"/></g><path d="M235.339,297.359a4.984,4.984,0,0,1-3.548-1.47,1.229,1.229,0,1,1,1.738-1.738,2.559,2.559,0,0,0,3.619,0,1.229,1.229,0,1,1,1.738,1.738A4.984,4.984,0,0,1,235.339,297.359Z" transform="translate(-136.562 -247.066)" fill="#d57080"/></g></svg>