<svg xmlns="http://www.w3.org/2000/svg" width="63.835" height="81.43" viewBox="0 0 63.835 81.43"><g transform="translate(-55.314)"><path d="M175.853,414.778l-6.926,2.315H146.552l-7.5-2.308c.433-4.566,1.009-6.359,1.363-8.7.206-1.345-.751-2.536.417-3.236a37.954,37.954,0,0,1,3.65-1.915c1.058-.487,2.114-.921,3.139-1.3,4.094-1.537,7.733,1.095,9.3.813a4.535,4.535,0,0,1,1.629,0c1.565.282,5.2-2.35,9.3-.813a41.73,41.73,0,0,1,6.79,3.219c1.168.7-.453,1.891-.246,3.236A86.228,86.228,0,0,1,175.853,414.778Z" transform="translate(-70.421 -335.663)"/><path d="M144.484,410.393a5.3,5.3,0,0,0-1.676,3.47c-.292,2.664-.778,7.44-1.124,12.69l-2.631-2.308c.433-4.566,1.009-6.359,1.363-8.7.206-1.345-.751-2.536.417-3.236a37.96,37.96,0,0,1,3.651-1.916Z" transform="translate(-70.421 -345.123)" fill="#212121"/><path d="M214.87,418.771a30.451,30.451,0,0,0,2.958,4.244c1.028,1.235,2.275.928,3.666,1.917,1.391-.989,2.638-.682,3.666-1.916a30.454,30.454,0,0,0,2.959-4.245v-8.382H214.87Z" transform="translate(-134.18 -345.12)" fill="#ecf4ff"/><path d="M240.8,461.774a20.108,20.108,0,0,1-3.665,3.506,20.106,20.106,0,0,1-3.665-3.506l3.665-5.3Z" transform="translate(-149.823 -383.878)" fill="#3c5aff"/><path d="M214.87,401.685l6.625,6.369,6.625-6.369-6.624-4.9" transform="translate(-134.18 -333.682)" fill="#3c5aff"/><path d="M137.307,436.651l-.007.03h-9.241c.433-4.566,1.009-8.667,1.363-11.009a4.581,4.581,0,0,1,2.166-3.236,9.429,9.429,0,0,1,2,1.378c2.692,2.419,3.637,6.023,3.964,8.5A11.9,11.9,0,0,1,137.307,436.651Z" transform="translate(-61.175 -355.25)" fill="#ecf4ff"/><path d="M133.587,423.815q-.015.089-.024.177c-.292,2.664-.778,7.44-1.124,12.69h-4.38c.433-4.566,1.009-8.667,1.363-11.009a4.581,4.581,0,0,1,2.166-3.236A9.426,9.426,0,0,1,133.587,423.815Z" transform="translate(-61.175 -355.251)" fill="#ddeafb"/><path d="M334.212,436.681h-9.241l-.044-.183a10.921,10.921,0,0,1-.255-3.794c.333-2.977,1.565-7.981,6.009-10.267a4.58,4.58,0,0,1,2.166,3.236C333.2,428.014,333.778,432.115,334.212,436.681Z" transform="translate(-226.464 -355.251)" fill="#ecf4ff"/><path d="M213.167,388.177l-3.488,9.686-6.625-6.369-6.625,6.369-3.487-9.686a55.52,55.52,0,0,1,9.3-2.577,4.532,4.532,0,0,1,1.628,0A55.5,55.5,0,0,1,213.167,388.177Z" transform="translate(-115.74 -324.211)" fill="#ddeafb"/><path d="M112.052,36.342l-7.436,8.481L75.74,36.858l-14.814.211s-7.44-10.878-5.185-21.51,15.947-4.187,15.947-4.187S79.135,0,88.96,0c14.6,0,20.744,13.948,27.348,8.956C116.308,8.956,124.969,25.33,112.052,36.342Z" transform="translate(-0.001)" fill="#161616"/><path d="M75.739,86.756,67.312,91.19l-6.387-4.224s-7.44-10.878-5.185-21.51,15.947-4.187,15.947-4.187-4.7,7.849,3.814,14.113c2.745,2.019,2.217,6.386.239,11.373Z" transform="translate(0 -49.898)"/><path d="M234.956,338.616v8.4a5.03,5.03,0,0,1-10.059,0v-8.4Z" transform="translate(-142.612 -284.761)" fill="#ffddce"/><path d="M231.571,351.768a5.035,5.035,0,0,1-6.672-4.755v-8.4h3.284v8.4A5.03,5.03,0,0,0,231.571,351.768Z" transform="translate(-142.614 -284.76)" fill="#ffcbbe"/><path d="M89.695,238.866a6.572,6.572,0,0,1-6.4-8.018,3.242,3.242,0,0,1,6.4.714h42.022a3.242,3.242,0,0,1,6.4-.714,6.572,6.572,0,0,1-6.4,8.018" transform="translate(-23.391 -192.005)" fill="#ffcbbe"/><path d="M99.879,250.677a1.227,1.227,0,0,1-1-.52,3.355,3.355,0,0,0-.74-.712,1.191,1.191,0,0,0-1.208-.224,1.229,1.229,0,0,1-.92-2.279,3.675,3.675,0,0,1,3.6.533,5.767,5.767,0,0,1,1.279,1.269,1.229,1.229,0,0,1-1.006,1.932Z" transform="translate(-33.574 -207.452)" fill="#eaac9d"/><path d="M382.131,250.681a1.23,1.23,0,0,1-1.006-1.937,5.764,5.764,0,0,1,1.279-1.269,3.675,3.675,0,0,1,3.6-.533,1.229,1.229,0,0,1-.92,2.279,1.19,1.19,0,0,0-1.208.224,3.372,3.372,0,0,0-.74.713A1.221,1.221,0,0,1,382.131,250.681Z" transform="translate(-273.806 -207.452)" fill="#eaac9d"/><path d="M224.9,338.616h10.06v7.738H224.9Z" transform="translate(-142.611 -284.761)" fill="#ffcbbe"/><path d="M166.432,148.267v11.772a15.314,15.314,0,0,1-15.315,15.315H139.724a15.314,15.314,0,0,1-15.315-15.315V148.267a9.826,9.826,0,0,0,9.827-9.825s.079.074.234.208C136.115,140.07,146.488,148.267,166.432,148.267Z" transform="translate(-58.106 -116.424)" fill="#ffddce"/><path d="M149.784,175.352H139.724a15.314,15.314,0,0,1-15.315-15.315V148.266a9.826,9.826,0,0,0,9.827-9.825s.079.074.234.208v21.388A15.314,15.314,0,0,0,149.784,175.352Z" transform="translate(-58.106 -116.423)" fill="#ffcbbe"/><g transform="translate(75.479 33.321)"><path d="M184.088,209.512c-1.094,0-1.984,1.477-1.984,3.293s.89,3.293,1.984,3.293,1.984-1.477,1.984-3.293S185.182,209.512,184.088,209.512Z" transform="translate(-182.104 -209.512)" fill="#161616"/><ellipse cx="1.984" cy="3.293" rx="1.984" ry="3.293" transform="translate(19.705)" fill="#161616"/></g><g transform="translate(70.015 41.129)"><ellipse cx="3.439" cy="2.091" rx="3.439" ry="2.091" transform="translate(27.721)" fill="#eaafa5"/><ellipse cx="3.439" cy="2.091" rx="3.439" ry="2.091" fill="#eaafa5"/></g><path d="M235.127,296.871a5.18,5.18,0,0,1-3.687-1.527,1.229,1.229,0,0,1,1.738-1.738,2.756,2.756,0,0,0,3.9,0,1.229,1.229,0,0,1,1.738,1.738A5.18,5.18,0,0,1,235.127,296.871Z" transform="translate(-147.812 -246.607)" fill="#d57080"/></g></svg>