<svg xmlns="http://www.w3.org/2000/svg" width="19.231" height="15.625" viewBox="0 0 19.231 15.625"><g transform="translate(-3.525 -3.071)"><g transform="translate(12.133 3.071)"><path d="M247.8,65.531a.755.755,0,0,1-.755-.755.756.756,0,0,0-.755-.755h-3.021A2.268,2.268,0,0,1,241,61.755a.755.755,0,0,1,1.51,0,.756.756,0,0,0,.755.755h3.021a2.268,2.268,0,0,1,2.266,2.266A.755.755,0,0,1,247.8,65.531Z" transform="translate(-241 -61)" fill="#fff"/></g><g transform="translate(3.525 9.094)"><path d="M75.475,268.762l-4.967,1.808a.755.755,0,0,0-.451.968l.689,1.892a.755.755,0,0,0,.968.451l4.967-1.808.107-1.914Z" transform="translate(-70.01 -264.325)" fill="#ffcd00"/><path d="M78.1,299.792a.755.755,0,0,0,.968.451l4.967-1.808.107-1.914-6.387,2.325Z" transform="translate(-77.37 -290.687)" fill="#ff9f22"/><path d="M204.725,195.927l-.107,1.914,1.312,1.4,8.989-3.272a.755.755,0,0,0,.451-.968l-.689-1.892a.755.755,0,0,0-.968-.451Z" transform="translate(-197.841 -192.007)" fill="#fff5f5"/><path d="M204.618,225.064l1.312,1.4,8.989-3.272a.755.755,0,0,0,.451-.968l-.344-.946Z" transform="translate(-197.841 -219.23)" fill="#dfdef5"/><path d="M386.941,180.684l-1.656.6,1.205,3.312,1.656-.6a.755.755,0,0,0,.451-.968l-.689-1.892A.755.755,0,0,0,386.941,180.684Z" transform="translate(-369.413 -180.639)" fill="#ff6378"/><g transform="translate(5.467 3.924)"><path d="M0,0H1.51V3.524H0Z" transform="translate(0 0.517) rotate(-19.993)" fill="#dfdef5"/><path d="M0,0H1.51V1.762H0Z" transform="translate(0.603 2.173) rotate(-19.993)" fill="#c1bde0"/></g><path d="M397.255,210.166l.6,1.656,1.656-.6a.755.755,0,0,0,.451-.968l-.344-.946Z" transform="translate(-380.78 -207.862)" fill="#ff3838"/></g></g></svg>