<svg xmlns="http://www.w3.org/2000/svg" width="25.776" height="25.776" viewBox="0 0 25.776 25.776"><g transform="translate(0)"><g transform="translate(12.133 3.071)"><path d="M247.8,65.531a.755.755,0,0,1-.755-.755.756.756,0,0,0-.755-.755h-3.021A2.268,2.268,0,0,1,241,61.755a.755.755,0,0,1,1.51,0,.756.756,0,0,0,.755.755h3.021a2.268,2.268,0,0,1,2.266,2.266A.755.755,0,0,1,247.8,65.531Z" transform="translate(-241 -61)" fill="#fff"/></g><g transform="translate(3.525 9.094)"><path d="M75.475,268.762l-4.967,1.808a.755.755,0,0,0-.451.968l.689,1.892a.755.755,0,0,0,.968.451l4.967-1.808.107-1.914Z" transform="translate(-70.01 -264.325)" fill="#ffcd00"/><path d="M78.1,299.792a.755.755,0,0,0,.968.451l4.967-1.808.107-1.914-6.387,2.325Z" transform="translate(-77.37 -290.687)" fill="#ff9f22"/><path d="M204.725,195.927l-.107,1.914,1.312,1.4,8.989-3.272a.755.755,0,0,0,.451-.968l-.689-1.892a.755.755,0,0,0-.968-.451Z" transform="translate(-197.841 -192.007)" fill="#fff5f5"/><path d="M204.618,225.064l1.312,1.4,8.989-3.272a.755.755,0,0,0,.451-.968l-.344-.946Z" transform="translate(-197.841 -219.23)" fill="#dfdef5"/><path d="M386.941,180.684l-1.656.6,1.205,3.312,1.656-.6a.755.755,0,0,0,.451-.968l-.689-1.892A.755.755,0,0,0,386.941,180.684Z" transform="translate(-369.413 -180.639)" fill="#ff6378"/><g transform="translate(5.467 3.924)"><path d="M0,0H1.51V3.524H0Z" transform="translate(0 0.517) rotate(-19.993)" fill="#dfdef5"/><path d="M0,0H1.51V1.762H0Z" transform="translate(0.603 2.173) rotate(-19.993)" fill="#c1bde0"/></g><path d="M397.255,210.166l.6,1.656,1.656-.6a.755.755,0,0,0,.451-.968l-.344-.946Z" transform="translate(-380.78 -207.862)" fill="#ff3838"/></g><path d="M22,3.775A12.888,12.888,0,0,0,3.775,22,12.888,12.888,0,0,0,22,3.775Zm2.265,9.113a11.33,11.33,0,0,1-2.82,7.49L5.4,4.331a11.372,11.372,0,0,1,18.868,8.558Zm-22.756,0A11.33,11.33,0,0,1,4.331,5.4L20.378,21.446A11.372,11.372,0,0,1,1.51,12.888Z" fill="#ff3838"/><g transform="translate(12.888)"><path d="M265.113,3.775A12.8,12.8,0,0,0,256,0V1.51a11.372,11.372,0,0,1,8.558,18.868L256,11.82v2.136l7.49,7.49a11.33,11.33,0,0,1-7.49,2.82v1.51a12.888,12.888,0,0,0,9.113-22Z" transform="translate(-256)" fill="#ff3838"/></g></g></svg>