<svg xmlns="http://www.w3.org/2000/svg" width="12.025" height="13.863" viewBox="0 0 12.025 13.863"><g transform="translate(-35.229 -0.988)"><g transform="translate(34.08 1.238)"><g transform="translate(2.139 2.447)"><g transform="translate(0 0)"><path d="M67.155,41.719A5.023,5.023,0,0,1,62.132,36.7v-2.1a1.263,1.263,0,0,1,1.263-1.263h8.783V36.7A5.023,5.023,0,0,1,67.155,41.719Z" transform="translate(-62.132 -33.33)" fill="#fff" stroke="#181717" stroke-width="0.5"/></g></g><g transform="translate(1.986 2.295)"><g transform="translate(0 0)"><path d="M65.306,40.024a5.181,5.181,0,0,1-5.175-5.175v-2.1a1.417,1.417,0,0,1,1.415-1.415h8.783a.153.153,0,0,1,.153.153v3.366A5.181,5.181,0,0,1,65.306,40.024Zm-3.76-8.389a1.111,1.111,0,0,0-1.11,1.11v2.1a4.87,4.87,0,1,0,9.74,0V31.635Z" transform="translate(-60.131 -31.33)" fill="#fff" stroke="#181717" stroke-width="0.5"/></g></g><g transform="translate(1.552 1.513)"><path d="M64.319,25.72v-.4a4.278,4.278,0,0,0-8.556,0v.4a1.294,1.294,0,1,0,.113,2.578,4.286,4.286,0,0,0,8.33,0,1.294,1.294,0,1,0,.113-2.578Z" transform="translate(-54.431 -21.08)" fill="#fff" stroke="#181717" stroke-width="0.5"/></g><g transform="translate(1.399 1.361)"><path d="M58.192,29.875a4.4,4.4,0,0,1-4.282-3.266,1.472,1.472,0,0,1-1-.374,1.444,1.444,0,0,1,.854-2.511v-.253a4.431,4.431,0,0,1,8.861,0v.253a1.447,1.447,0,0,1,.9.411,1.438,1.438,0,0,1-.045,2.1,1.482,1.482,0,0,1-1,.374A4.4,4.4,0,0,1,58.192,29.875ZM54.027,26.3a.152.152,0,0,1,.148.118,4.134,4.134,0,0,0,8.033,0,.152.152,0,0,1,.164-.117,1.164,1.164,0,0,0,.9-.29,1.133,1.133,0,0,0,.035-1.655,1.152,1.152,0,0,0-.835-.328.148.148,0,0,1-.11-.044.152.152,0,0,1-.046-.109v-.4a4.126,4.126,0,0,0-8.251,0v.4a.153.153,0,0,1-.046.109.149.149,0,0,1-.11.044,1.154,1.154,0,0,0-.835.328,1.133,1.133,0,0,0,.036,1.655,1.163,1.163,0,0,0,.9.29Z" transform="translate(-52.429 -19.08)" fill="#fff" stroke="#181717" stroke-width="0.5"/></g><g transform="translate(2.884 0.153)"><path d="M81.2,8.417H74.49a2.589,2.589,0,0,1,0-5.178h4.393A2.318,2.318,0,0,1,81.2,5.557Z" transform="translate(-71.901 -3.239)" fill="#fff" stroke="#181717" stroke-width="0.5"/></g><g transform="translate(2.731)"><path d="M79.353,6.721H72.642a2.742,2.742,0,0,1,0-5.483h4.393a2.474,2.474,0,0,1,2.471,2.471v2.86a.152.152,0,0,1-.152.153ZM72.642,1.543a2.437,2.437,0,0,0,0,4.873H79.2V3.709a2.168,2.168,0,0,0-2.166-2.166Z" transform="translate(-69.9 -1.238)" fill="#fff" stroke="#181717" stroke-width="0.5"/></g><g transform="translate(6.17 9.101)"><ellipse cx="0.992" cy="0.824" rx="0.992" ry="0.824" fill="#fff" stroke="#181717" stroke-width="0.5"/></g><g transform="translate(3.776 6.249)"><g transform="translate(5.069 0.526)"><path d="M150.211,90.081a.539.539,0,0,0-.134.356v.578a.542.542,0,1,0,1.083,0v-.552A2.564,2.564,0,0,1,150.211,90.081Z" transform="translate(-150.077 -90.081)" fill="#fff" stroke="#181717" stroke-width="0.5"/></g><g transform="translate(0.618 0.524)"><path d="M91.7,90.447V91a.542.542,0,0,0,1.083,0v-.578a.539.539,0,0,0-.135-.357A2.562,2.562,0,0,1,91.7,90.447Z" transform="translate(-91.701 -90.064)" fill="#fff" stroke="#181717" stroke-width="0.5"/></g><g transform="translate(4.594 0)"><path d="M145.793,84.283a2.746,2.746,0,0,1-1.905-.84.152.152,0,0,1,.227-.2,2.465,2.465,0,0,0,1.75.738.153.153,0,1,1,.01.3Z" transform="translate(-143.849 -83.189)" fill="#fff" stroke="#181717" stroke-width="0.5"/></g><path d="M83.827,84.282h-.082a.153.153,0,1,1,.01-.3,2.453,2.453,0,0,0,1.75-.737.152.152,0,0,1,.227.2A2.746,2.746,0,0,1,83.827,84.282Z" transform="translate(-83.598 -83.188)" fill="#fff" stroke="#181717" stroke-width="0.5"/></g><g transform="translate(7.793 10.51)"><g transform="translate(0)"><path d="M138.819,140.288a.851.851,0,1,0-1.619-.363.851.851,0,1,0,.275,1.623.927.927,0,1,0,1.344-1.26Z" transform="translate(-136.274 -139.072)" fill="#fff" stroke="#181717" stroke-width="0.5"/></g></g><g transform="translate(7.763 10.228)"><g transform="translate(0)"><path d="M136.661,136.272a.165.165,0,0,1-.133-.046l-.589-.58a.165.165,0,0,1,.231-.235l.589.58a.165.165,0,0,1-.1.281Z" transform="translate(-135.89 -135.364)" fill="#fff" stroke="#181717" stroke-width="0.5"/></g></g><g transform="translate(7.024 10.237)"><g transform="translate(0)"><path d="M126.97,136.4a.165.165,0,0,1-.133-.046l-.589-.58a.165.165,0,0,1,.231-.235l.589.58a.165.165,0,0,1-.1.281Z" transform="translate(-126.198 -135.491)" fill="#fff" stroke="#181717" stroke-width="0.5"/></g></g></g></g></svg>