<svg xmlns="http://www.w3.org/2000/svg" width="9.79" height="13.016" viewBox="0 0 9.79 13.016">
  <g id="diabetes" transform="translate(-5.291 -4.004)">
    <path id="Path_16375" data-name="Path 16375" d="M171.249,134.991a3.975,3.975,0,0,0,3.918-4.029c0-2.535-2.435-6.005-3.466-7.36a.564.564,0,0,0-.9,0c-1.031,1.355-3.466,4.826-3.466,7.36a3.975,3.975,0,0,0,3.918,4.029m0,.7a4.68,4.68,0,0,1-4.618-4.729,9.823,9.823,0,0,1,1.432-4.457,27.1,27.1,0,0,1,2.177-3.327,1.264,1.264,0,0,1,2.018,0,27.093,27.093,0,0,1,2.177,3.327,9.823,9.823,0,0,1,1.432,4.457A4.68,4.68,0,0,1,171.249,135.691Z" transform="translate(-160.786 -118.672)"/>
    <path id="Path_16377" data-name="Path 16377" d="M139.381,141.9h.97a.131.131,0,0,0,.131-.131v-.97a.6.6,0,0,1,.562-.607.591.591,0,0,1,.619.59v.987a.131.131,0,0,0,.131.131h.97a.6.6,0,0,1,.607.562.591.591,0,0,1-.59.619H141.8a.131.131,0,0,0-.131.131v.97a.6.6,0,0,1-.562.607.591.591,0,0,1-.619-.59v-.987a.131.131,0,0,0-.131-.131h-.987a.591.591,0,0,1-.59-.619A.6.6,0,0,1,139.381,141.9Z" transform="translate(-133.483 -134.745)"/>
  </g>
</svg>
