<svg xmlns="http://www.w3.org/2000/svg" width="22" height="27" viewBox="0 0 22 27"><g transform="translate(-313 -458)"><g transform="translate(313 458)"><circle cx="10.994" cy="10.994" r="10.994" fill="#ffd93b"/><path d="M116.579,327.3a7.05,7.05,0,0,1-13.04,0,.431.431,0,0,1,.325-.57,33.55,33.55,0,0,1,12.391,0A.432.432,0,0,1,116.579,327.3Z" transform="translate(-99.061 -312.141)" fill="#3e4347"/><path d="M76.283,65.283A11,11,0,0,1,56.72,72.189,11,11,0,0,0,72.189,56.72,10.988,10.988,0,0,1,76.283,65.283Z" transform="translate(-54.283 -54.283)" fill="#f4c534"/><g transform="translate(4.953 5.339)"><path d="M115.264,326.741c.782,1.273,3.231,1.41,6.152,1.41,2.883,0,5.336-.137,6.152-1.357a.434.434,0,0,0-.063-.028A33.542,33.542,0,0,0,115.264,326.741Z" transform="translate(-115.264 -317.514)" fill="#fff"/><ellipse cx="3.483" cy="3.481" rx="3.483" ry="3.481" transform="translate(6.88)" fill="#fff"/></g><ellipse cx="1.899" cy="1.9" rx="1.899" ry="1.9" transform="translate(13.415 6.92)" fill="#3e4347"/><g transform="translate(3.204 5.339)"><ellipse cx="0.514" cy="0.347" rx="0.514" ry="0.347" transform="matrix(-0.707, -0.707, 0.707, -0.707, 13.042, 3.35)" fill="#fff"/><ellipse cx="3.483" cy="3.481" rx="3.483" ry="3.481" fill="#fff"/></g><ellipse cx="1.899" cy="1.9" rx="1.899" ry="1.9" transform="translate(4.786 6.92)" fill="#3e4347"/><ellipse cx="0.514" cy="0.347" rx="0.514" ry="0.347" transform="matrix(-0.707, -0.707, 0.707, -0.707, 7.617, 8.688)" fill="#fff"/></g><ellipse cx="9" cy="0.5" rx="9" ry="0.5" transform="translate(315 484)" fill="#d5d5d5" opacity="0.52"/></g></svg>