<svg xmlns="http://www.w3.org/2000/svg" width="13.238" height="12.006" viewBox="0 0 13.238 12.006"><defs><style>.a{fill:#fff;}</style></defs><g transform="translate(-187.601 -462.497)"><path class="a" d="M12.31,3.3a3.8,3.8,0,0,0-1.277-2.026A3.361,3.361,0,0,0,8.921.5,3.118,3.118,0,0,0,7.293.96a3.894,3.894,0,0,0-1.074.978A3.375,3.375,0,0,0,3.518.5a3.359,3.359,0,0,0-2.11.775A3.8,3.8,0,0,0,.13,3.3,4.533,4.533,0,0,0,.209,5.739H2.092l.68-1.36a.364.364,0,0,1,.652,0l1.235,2.47,1.235-2.47a.364.364,0,0,1,.652,0l.68,1.36H9.764a.364.364,0,0,1,0,.729H7a.364.364,0,0,1-.326-.2L6.22,5.357,4.984,7.827a.364.364,0,0,1-.652,0L3.1,5.357l-.455.909a.365.365,0,0,1-.326.2H.482a6.957,6.957,0,0,0,.451.838,13.493,13.493,0,0,0,5.111,4.357.365.365,0,0,0,.349,0,13.5,13.5,0,0,0,5.113-4.357,5.044,5.044,0,0,0,.8-4Zm0,0" transform="translate(188 462.397)"/><path d="M6.219,12.106a.766.766,0,0,1-.366-.093,13.876,13.876,0,0,1-5.258-4.5,7.4,7.4,0,0,1-.477-.886l-.254-.564H-.11l-.064-.214A4.986,4.986,0,0,1-.257,3.2,4.2,4.2,0,0,1,1.154.965,3.76,3.76,0,0,1,3.518.1a3.689,3.689,0,0,1,2.7,1.221,4.127,4.127,0,0,1,.867-.7A3.513,3.513,0,0,1,8.921.1a3.762,3.762,0,0,1,2.364.865A4.2,4.2,0,0,1,12.7,3.2a5.432,5.432,0,0,1-.852,4.316,13.884,13.884,0,0,1-5.26,4.5A.767.767,0,0,1,6.219,12.106ZM1.137,6.867q.065.113.135.225A13.092,13.092,0,0,0,6.219,11.3a13.1,13.1,0,0,0,4.948-4.209A4.656,4.656,0,0,0,11.922,3.4a3.4,3.4,0,0,0-1.142-1.815A2.96,2.96,0,0,0,8.921.9,2.723,2.723,0,0,0,7.5,1.3a3.5,3.5,0,0,0-.963.879l-.317.413L5.9,2.181A2.971,2.971,0,0,0,3.518.9a2.959,2.959,0,0,0-1.857.685A3.405,3.405,0,0,0,.518,3.4a4.045,4.045,0,0,0,0,1.939H1.844L2.414,4.2a.764.764,0,0,1,1.367,0l.877,1.755L5.536,4.2A.764.764,0,0,1,6.9,4.2l.569,1.139H9.764a.764.764,0,0,1,0,1.529H7a.76.76,0,0,1-.684-.422l-.1-.194L5.342,8.006a.764.764,0,0,1-1.367,0L3.1,6.251,3,6.445a.761.761,0,0,1-.684.422Z" transform="translate(188 462.397)"/></g></svg>