<svg xmlns="http://www.w3.org/2000/svg" width="23" height="28" viewBox="0 0 23 28"><g transform="translate(-313 -384)"><g transform="translate(313 384.107)"><circle cx="11.5" cy="11.5" r="11.5" transform="translate(0 -0.107)" fill="#ffd93b"/><path d="M76.888,65.548A11.341,11.341,0,0,1,56.72,72.667,11.341,11.341,0,0,0,72.667,56.72,11.328,11.328,0,0,1,76.888,65.548Z" transform="translate(-54.207 -54.249)" fill="#f4c534"/><g transform="translate(4.851 11.53)"><path d="M186.355,372.062a.587.587,0,0,1-.59.59h-5.59a.59.59,0,1,1,0-1.181h5.59A.591.591,0,0,1,186.355,372.062Z" transform="translate(-176.48 -366.588)" fill="#3e4347"/><path d="M109.615,261.246c.277-.163,1.1.716,2.385.764,1.333.05,2.108-.927,2.385-.764.345.118-.125,2.372-2.385,2.381C109.741,263.618,109.27,261.364,109.615,261.246Z" transform="translate(-109.513 -261.225)" fill="#3e4347"/></g><path d="M91.234,180.694a.472.472,0,0,1,.15-.933,3.008,3.008,0,0,0,3.471-1.49.473.473,0,0,1,.875.357A3.992,3.992,0,0,1,91.234,180.694Z" transform="translate(-86.813 -170.134)" fill="#e9b02c"/><path d="M295.087,261.246c-.277-.163-1.1.716-2.385.764-1.333.05-2.108-.927-2.385-.764-.345.118.125,2.372,2.385,2.381C294.961,263.618,295.432,261.364,295.087,261.246Z" transform="translate(-277.36 -249.695)" fill="#3e4347"/><path d="M309.916,178.609a.473.473,0,0,1,.875-.359c.035.085.847,1.914,3.472,1.493a.472.472,0,1,1,.15.933A3.994,3.994,0,0,1,309.916,178.609Z" transform="translate(-296.154 -170.116)" fill="#e9b02c"/></g><ellipse cx="9" cy="0.5" rx="9" ry="0.5" transform="translate(316 411)" fill="#d5d5d5" opacity="0.52"/></g></svg>