<svg xmlns="http://www.w3.org/2000/svg" xmlns:xlink="http://www.w3.org/1999/xlink" width="22.852" height="30" viewBox="0 0 22.852 30"><defs><linearGradient id="a" x1="0.5" y1="1" x2="0.5" gradientUnits="objectBoundingBox"><stop offset="0" stop-color="#3c5aff"/><stop offset="1" stop-color="#353951"/></linearGradient><linearGradient id="b" x1="0.39" y1="0.986" x2="0.5" gradientUnits="objectBoundingBox"><stop offset="0" stop-color="#a3b1ff"/><stop offset="1" stop-color="#fff"/></linearGradient></defs><g transform="translate(-61)"><g transform="translate(61)"><path d="M68.91,0H61.879A.87.87,0,0,0,61,.879V3.633l2.2.879L61,5.391V7.148l1.758.879L61,8.906v1.758l3.516.879L61,12.422V14.18l1.758.879L61,15.938V17.7l3.516.879L61,19.453v1.758l1.758.879L61,22.969v1.758l3.516.879L61,26.484v2.637a.87.87,0,0,0,.879.879H68.91a.87.87,0,0,0,.879-.879V.879A.87.87,0,0,0,68.91,0Z" transform="translate(-61)" fill="url(#a)"/></g><g transform="translate(61 3.633)"><path d="M65.395,83.094H61v1.758h4.395a.879.879,0,0,0,0-1.758Zm-.879-2.637a.87.87,0,0,0-.879-.879H61v1.758h2.637A.87.87,0,0,0,64.516,80.457Zm.879-4.395H61V77.82h4.395a.879.879,0,0,0,0-1.758Zm-.879-2.637a.87.87,0,0,0-.879-.879H61V74.3h2.637A.87.87,0,0,0,64.516,73.426Zm.879-4.395H61v1.758h4.395a.879.879,0,0,0,0-1.758Zm-.879-2.637a.87.87,0,0,0-.879-.879H61v1.758h2.637A.87.87,0,0,0,64.516,66.395ZM82.973,62H61v1.758H82.973a.879.879,0,0,0,0-1.758Zm-2.637,6.152A2.637,2.637,0,1,0,77.7,70.789,2.64,2.64,0,0,0,80.336,68.152ZM77.7,70.789A4.4,4.4,0,0,0,73.3,75.184V78.7a.878.878,0,0,0,.879.879h.879v7.91a.878.878,0,0,0,.879.879h3.516a.878.878,0,0,0,.879-.879v-7.91h.879a.878.878,0,0,0,.879-.879V75.184A4.4,4.4,0,0,0,77.7,70.789Z" transform="translate(-61 -62)" fill="url(#b)"/></g></g></svg>