<svg xmlns="http://www.w3.org/2000/svg" xmlns:xlink="http://www.w3.org/1999/xlink" width="23.808" height="30.426" viewBox="0 0 23.808 30.426"><defs><linearGradient id="a" x1="0.5" x2="0.5" y2="1" gradientUnits="objectBoundingBox"><stop offset="0" stop-color="#363b5c"/><stop offset="1" stop-color="#3c58f5"/></linearGradient></defs><g transform="translate(-55.686)"><path d="M72.162,44.4A10.277,10.277,0,0,1,62.69,30.112a.738.738,0,0,0-1.047-.932A12.147,12.147,0,1,0,79.461,43.145a.737.737,0,0,0-1.149-.8A10.226,10.226,0,0,1,72.162,44.4Z" transform="translate(0 -27.346)" fill="url(#a)"/><path d="M79,192.244a12.146,12.146,0,0,1-23.268-3.692c-.028.312-.045.627-.048.945a12.147,12.147,0,0,0,23.774,3.648A.729.729,0,0,0,79,192.244Z" transform="translate(-0.001 -177.347)" fill="#38458e"/><path d="M208.627,216.9a10.37,10.37,0,0,0,1.025.926,2.744,2.744,0,0,1,1.05,2.152V232.54a.862.862,0,0,0,.862.862h2.155a3.115,3.115,0,0,0,3.115-3.115v-.822h1.032a2.337,2.337,0,0,0,2.337-2.337V222.4a4.48,4.48,0,0,0-4.48-4.48h-1.875v-.161a1.953,1.953,0,0,0-2.641-1.828Z" transform="translate(-143.852 -202.976)" fill="#ddebfd"/><g transform="translate(68.325 14.94)"><path d="M271.918,251.4h-1.542a4.48,4.48,0,0,1,4.48,4.48v4.732a2.337,2.337,0,0,1-2.337,2.337h-.21a.822.822,0,0,0-.822.822,3.115,3.115,0,0,1-3.115,3.115h1.542a3.115,3.115,0,0,0,3.115-3.115v-.822h1.032a2.337,2.337,0,0,0,2.337-2.337v-4.732A4.48,4.48,0,0,0,271.918,251.4Z" transform="translate(-268.372 -251.401)" fill="#bed9fd"/><path d="M296.906,255.778a.422.422,0,0,0,.422-.422V251.4h-.844v3.955A.422.422,0,0,0,296.906,255.778Z" transform="translate(-294.813 -251.401)" fill="#bed9fd"/><path d="M347.162,367.2a.422.422,0,0,0-.422.422v4.245h.844v-4.245A.422.422,0,0,0,347.162,367.2Z" transform="translate(-342.083 -360.319)" fill="#bed9fd"/></g><path d="M301.29,120.094h-1.716a.61.61,0,0,1-.517-.935l1.415-2.255h-1.184a.452.452,0,1,1,0-.9H301a.61.61,0,0,1,.517.935l-1.415,2.254h1.184a.452.452,0,1,1,0,.9ZM301,116.9h0Z" transform="translate(-228.7 -109.107)" fill="#d6c90d"/><path d="M258.083,4.094h-1.716a.61.61,0,0,1-.517-.935L257.265.9H256.08a.452.452,0,0,1,0-.9H257.8a.61.61,0,0,1,.517.935L256.9,3.189h1.184a.452.452,0,1,1,0,.9ZM257.8.9h0Z" transform="translate(-188.06)" fill="#d6c90d"/><path d="M391.39,55.351h-1.716a.61.61,0,0,1-.517-.935l1.415-2.254h-1.184a.452.452,0,1,1,0-.9H391.1a.61.61,0,0,1,.517.935l-1.415,2.254h1.184a.452.452,0,1,1,0,.9Zm-.286-3.189h0Z" transform="translate(-313.445 -48.211)" fill="#d6c90d"/></g></svg>