<svg xmlns="http://www.w3.org/2000/svg" xmlns:xlink="http://www.w3.org/1999/xlink" width="25.049" height="25.426" viewBox="0 0 25.049 25.426"><defs><linearGradient id="a" x1="0.5" x2="0.5" y2="1" gradientUnits="objectBoundingBox"><stop offset="0" stop-color="#c3ddff"/><stop offset="0" stop-color="#353b5b"/><stop offset="1" stop-color="#3c5afc"/></linearGradient><linearGradient id="b" x1="0.5" x2="0.5" y2="1" gradientUnits="objectBoundingBox"><stop offset="0" stop-color="#c8d0ff"/><stop offset="1" stop-color="#fff"/></linearGradient><linearGradient id="c" x1="0.5" x2="0.5" y2="1" gradientUnits="objectBoundingBox"><stop offset="0" stop-color="#353d65"/><stop offset="1" stop-color="#3c5afa"/></linearGradient><linearGradient id="d" x1="0.5" x2="0.5" y2="1" gradientUnits="objectBoundingBox"><stop offset="0" stop-color="#ccd3ff"/><stop offset="1" stop-color="#fafaff"/></linearGradient></defs><g transform="translate(-3.798)"><g transform="translate(3.798 3.303)"><path d="M5.615,66.5A1.822,1.822,0,0,0,3.8,68.32V86.809a1.823,1.823,0,0,0,1.817,1.817H27.03a1.824,1.824,0,0,0,1.817-1.817V68.32A1.824,1.824,0,0,0,27.03,66.5Z" transform="translate(-3.798 -66.503)" fill-rule="evenodd" fill="url(#a)"/></g><g transform="translate(5.712 5.219)"><path d="M42.349,105.356V123.1a.275.275,0,0,0,.274.274h20.67a.274.274,0,0,0,.274-.274V105.356a.274.274,0,0,0-.274-.273h-3.5v.074a6.831,6.831,0,1,1-13.661,0c0-.024,0-.05,0-.074H42.623a.275.275,0,0,0-.274.273Z" transform="translate(-42.349 -105.083)" fill-rule="evenodd" fill="url(#b)"/></g><g transform="translate(11.407 0.378)"><path d="M157.021,12.527a4.9,4.9,0,1,0,.419-1.99A4.9,4.9,0,0,0,157.021,12.527Z" transform="translate(-157.021 -7.612)" fill="#f9f7f8" fill-rule="evenodd"/></g><g transform="translate(15.183 0.378)"><path d="M235.829,8.967a4.927,4.927,0,0,1,1.02,1.486c.013.027.024.056.036.083a4.916,4.916,0,0,1-3.829,6.774,4.916,4.916,0,1,0,.437-9.648,4.831,4.831,0,0,1,.7.223A4.928,4.928,0,0,1,235.829,8.967Z" transform="translate(-233.056 -7.611)" fill="#f0f0f0" fill-rule="evenodd"/></g><g transform="translate(23.268 3.303)"><path d="M395.859,66.5a1.823,1.823,0,0,1,1.817,1.817v.1h1.572a.274.274,0,0,1,.274.273V86.437a.274.274,0,0,1-.274.274h-1.572v.1a1.823,1.823,0,0,1-1.817,1.817h3.762a1.824,1.824,0,0,0,1.817-1.817V68.32a1.824,1.824,0,0,0-1.817-1.817Z" transform="translate(-395.859 -66.503)" fill-rule="evenodd" fill="url(#c)"/></g><g transform="translate(11.029)"><path d="M229.678,55.567a1.283,1.283,0,0,0-.619-.07l-.506-1.1a.378.378,0,1,0-.687.315l.507,1.106a1.288,1.288,0,0,0,1.394,2.132,1.288,1.288,0,0,0-.088-2.379Zm.05,1.394a.532.532,0,0,1-.983.036.532.532,0,0,1,.669-.721.533.533,0,0,1,.313.685Z" transform="translate(-223.936 -51.482)" fill="#3c5aff"/><path d="M154.7,0A5.294,5.294,0,1,0,160,5.293,5.3,5.3,0,0,0,154.7,0Zm3.463,8.222-.372-.372a.378.378,0,0,0-.535.535l.372.372a4.518,4.518,0,0,1-2.551,1.059V9.286a.378.378,0,0,0-.756,0v.529a4.515,4.515,0,0,1-2.55-1.059l.372-.371a.378.378,0,1,0-.534-.535l-.372.372a4.519,4.519,0,0,1-1.058-2.551h.528a.378.378,0,0,0,0-.756h-.528a4.517,4.517,0,0,1,1.058-2.55l.372.372a.378.378,0,0,0,.535-.535l-.372-.372a4.517,4.517,0,0,1,2.55-1.058V1.3a.378.378,0,0,0,.756,0V.772A4.519,4.519,0,0,1,157.63,1.83l-.372.373a.378.378,0,1,0,.535.534l.371-.372a4.517,4.517,0,0,1,1.059,2.55h-.529a.378.378,0,1,0,0,.756h.529a4.519,4.519,0,0,1-1.059,2.551Z" transform="translate(-149.409)" fill="#3c5aff"/></g><g transform="translate(11.281 18.569)"><path d="M164.308,373.906H154.75a.263.263,0,0,0-.261.262v2a.263.263,0,0,0,.261.262h9.558a.262.262,0,0,0,.261-.262v-2A.262.262,0,0,0,164.308,373.906Z" transform="translate(-154.489 -373.906)" fill="#c1b610" fill-rule="evenodd"/></g><g transform="translate(18.921 18.569)"><path d="M308.577,374.167v2a.262.262,0,0,1-.261.261h2.18a.262.262,0,0,0,.262-.261v-2a.262.262,0,0,0-.262-.261h-2.18A.262.262,0,0,1,308.577,374.167Z" transform="translate(-308.316 -373.906)" fill="#d6c90d" fill-rule="evenodd"/></g><g transform="translate(25.085 5.219)"><path d="M432.546,105.356V123.1a.273.273,0,0,1-.093.206v.069h1.572a.274.274,0,0,0,.274-.274V105.356a.274.274,0,0,0-.274-.273h-1.572v.069A.27.27,0,0,1,432.546,105.356Z" transform="translate(-432.453 -105.083)" fill-rule="evenodd" fill="url(#d)"/></g></g></svg>